# xmcd
#
# Track frame offsets: 
#        150
#        26069
#        78649
#        90295
#        123877
#        164902
#        187095
#        207186
#        222807
#        242659
#        275519
#        293280
#        325722
#
# Disc length: 4704 seconds
#
# Revision: 0
# Processed by: cddbd v1.5.2PL0 Copyright (c) Steve Scherf et al.
# Submitted via: ExactAudioCopy v0.99pb5
#
DISCID=b4125e0d
DTITLE=Various  - Cave of Clear Light - The Pye and Dawn Records Under
DTITLE=ground Trip 1967-1975 [CD2]
DYEAR=1900
DGENRE=
TTITLE0=Fire - Tell You a Story
TTITLE1=Titus Groan - Hall of Bright Carvings
TTITLE2=Atlantic Bridge - Hilary Dixon
TTITLE3=Comus - Song to Comus
TTITLE4=Mungo Jerry - I Just Wanna Make Love to You
TTITLE5=JACKIE McAULEY - Cameramen- Wilson and Holmes
TTITLE6=Pluto - Road to Glory
TTITLE7=Quiet World - Body to the Mind
TTITLE8=Trifle - One Way Glass
TTITLE9=Mike Cooper - Pharoah's March
TTITLE10=Demon Fuzz - I Put a Spell on You
TTITLE11=Status Quo - Someone's Learning
TTITLE12=Atomic Rooster - Time Take My Life
EXTD=
EXTT0=
EXTT1=
EXTT2=
EXTT3=
EXTT4=
EXTT5=
EXTT6=
EXTT7=
EXTT8=
EXTT9=
EXTT10=
EXTT11=
EXTT12=
PLAYORDER=
